<svg xmlns="http://www.w3.org/2000/svg" width="1600" height="1595" viewBox="0 0 1600 1595" fill="none">
  <path fill-rule="evenodd" clip-rule="evenodd" d="M799.898 0C1486.33 0 2042.8 156.7 2042.8 350C2042.8 457.479 1870.76 553.643 1600 617.846V1595H0V617.894C-270.877 553.691 -443 457.506 -443 350C-443 156.7 113.464 0 799.898 0Z" fill="#D9D9D9"/>
  <path fill-rule="evenodd" clip-rule="evenodd" d="M799.898 0C1486.33 0 2042.8 156.7 2042.8 350C2042.8 457.479 1870.76 553.643 1600 617.846V1595H0V617.894C-270.877 553.691 -443 457.506 -443 350C-443 156.7 113.464 0 799.898 0Z" fill="url(#paint0_linear_2179_7939)"/>
  <defs>
    <linearGradient id="paint0_linear_2179_7939" x1="797.5" y1="43" x2="797.5" y2="1026" gradientUnits="userSpaceOnUse">
      <stop stop-color="#004AB8"/>
      <stop offset="1" stop-color="#002262"/>
    </linearGradient>
  </defs>
</svg>