<svg xmlns="http://www.w3.org/2000/svg" width="24" height="26" viewBox="0 0 24 26" fill="none">
  <path fill-rule="evenodd" clip-rule="evenodd" d="M15.6195 5.3804C15.6195 5.38002 15.6195 5.37965 15.6195 5.37927C15.6195 3.40149 13.9962 1.79309 12.0002 1.79309C10.0042 1.79309 8.38097 3.40149 8.38097 5.37927C8.38097 5.37965 8.38097 5.38002 8.38097 5.3804H15.6195ZM6.57137 5.38517C6.57135 5.3832 6.57135 5.38124 6.57135 5.37927C6.57135 2.4126 9.00619 0 12.0002 0C14.9942 0 17.4291 2.4126 17.4291 5.37927C17.4291 5.38124 17.4291 5.38321 17.4291 5.38517C18.6121 5.40062 19.3297 5.46602 19.9349 5.74285C20.6332 6.06226 21.2248 6.57592 21.6391 7.22249C22.1092 7.95619 22.2474 8.93149 22.524 10.8821L23.6326 18.7026C23.9895 21.2204 24.168 22.4792 23.7856 23.4573C23.45 24.3159 22.8281 25.0322 22.0251 25.4851C21.1104 26.0009 19.8389 26.0009 17.296 26.0009H6.70382C4.16091 26.0009 2.88945 26.0009 1.97473 25.4851C1.17173 25.0322 0.549807 24.3159 0.214152 23.4573C-0.168202 22.4792 0.0102597 21.2204 0.367183 18.7026L1.47585 10.8821C1.75237 8.93149 1.89063 7.95619 2.36073 7.22249C2.77499 6.57592 3.3666 6.06226 4.06491 5.74285C4.67025 5.46597 5.38798 5.4006 6.57137 5.38517ZM16.5243 8.96633C16.2843 8.96633 16.0541 9.06079 15.8845 9.22893C15.7148 9.39706 15.6195 9.6251 15.6195 9.86288C15.6195 11.8407 13.9962 13.4491 12.0002 13.4491C10.0042 13.4491 8.38097 11.8407 8.38097 9.86288C8.38097 9.6251 8.28564 9.39706 8.11595 9.22893C7.94627 9.06079 7.71613 8.96633 7.47616 8.96633C7.23619 8.96633 7.00604 9.06079 6.83636 9.22893C6.66668 9.39706 6.57135 9.6251 6.57135 9.86288C6.57135 12.8295 9.00619 15.2422 12.0002 15.2422C14.9942 15.2422 17.4291 12.8295 17.4291 9.86288C17.4291 9.6251 17.3337 9.39706 17.1641 9.22893C16.9944 9.06079 16.7642 8.96633 16.5243 8.96633Z" fill="white"/>
</svg>