<svg xmlns="http://www.w3.org/2000/svg" width="32" height="32" viewBox="0 0 32 32" fill="none">
  <circle cx="16" cy="15.9995" r="15.7143" stroke="#F9E7CB" stroke-width="0.571429"/>
  <path d="M13.1415 9.14014C10.9363 9.14014 9.14258 10.9355 9.14258 13.1413V18.8555C9.14258 21.0607 10.938 22.8544 13.1437 22.8544H18.858C21.0631 22.8544 22.8569 21.059 22.8569 18.8533V13.139C22.8569 10.9339 21.0615 9.14014 18.8557 9.14014H13.1415ZM19.9997 11.4259C20.3152 11.4259 20.5711 11.6819 20.5711 11.9973C20.5711 12.3127 20.3152 12.5687 19.9997 12.5687C19.6843 12.5687 19.4283 12.3127 19.4283 11.9973C19.4283 11.6819 19.6843 11.4259 19.9997 11.4259ZM15.9997 12.5687C17.8906 12.5687 19.4283 14.1064 19.4283 15.9973C19.4283 17.8881 17.8906 19.4259 15.9997 19.4259C14.1089 19.4259 12.5711 17.8881 12.5711 15.9973C12.5711 14.1064 14.1089 12.5687 15.9997 12.5687ZM15.9997 13.7116C15.3935 13.7116 14.8121 13.9524 14.3835 14.381C13.9548 14.8097 13.714 15.3911 13.714 15.9973C13.714 16.6035 13.9548 17.1849 14.3835 17.6135C14.8121 18.0422 15.3935 18.283 15.9997 18.283C16.6059 18.283 17.1873 18.0422 17.616 17.6135C18.0446 17.1849 18.2854 16.6035 18.2854 15.9973C18.2854 15.3911 18.0446 14.8097 17.616 14.381C17.1873 13.9524 16.6059 13.7116 15.9997 13.7116Z" fill="#F9E7CB"/>
</svg>