<svg xmlns="http://www.w3.org/2000/svg" width="1600" height="1081" viewBox="0 0 1600 1081" fill="none">
  <path d="M-1070.72 182.779C-964.912 263.074 -853.65 341.288 -735.969 387.608C-404.502 516.77 -55.5074 416.92 280.625 350.365C351.755 336.017 424.201 324.422 495.674 316.624C661.46 298.153 828.157 297.364 993.612 309.378C1023.81 311.75 1054.93 316.097 1084.84 321.681C1397.87 383.652 1763.89 572.026 2004.48 841.789C2076.43 908.437 2094.49 958.481 2160.22 1036.29C2171.07 1049.21 2181.22 1061.81 2191.27 1075.5L2194.91 1080.64L2335.99 748.172L2329.61 740.901C2271.86 678.134 2209.26 624.007 2146.88 571.545C1819.94 302.485 1386.84 198.64 998.385 193.886C811.213 193.4 622.97 208.431 436.776 243.926C401.06 250.761 363.58 258.774 327.99 267.347C12.9153 348.483 -319.354 417.63 -627.747 286.707C-656.441 274.761 -683.974 260.283 -711.293 243.696C-777.905 202.848 -839.828 150.116 -898.568 90.4031C-926.418 62.0569 -953.705 32.2053 -980.414 0.734382L-1070.73 182.759L-1070.72 182.779Z" fill="url(#paint0_linear_2179_7757)"/>
  <defs>
    <linearGradient id="paint0_linear_2179_7757" x1="1736.16" y1="625.824" x2="-99.6369" y2="414.595" gradientUnits="userSpaceOnUse">
      <stop offset="0.156133" stop-color="#004AB8"/>
      <stop offset="0.778426" stop-color="#002262"/>
    </linearGradient>
  </defs>
</svg>