<svg xmlns="http://www.w3.org/2000/svg" width="19" height="20" viewBox="0 0 19 20" fill="none">
  <g clip-path="url(#clip0_2179_7559)">
    <path d="M14.4448 13.4029C13.8241 12.7901 13.0492 12.7901 12.4324 13.4029C11.9619 13.8695 11.4914 14.336 11.0288 14.8105C10.9023 14.9409 10.7956 14.9686 10.6414 14.8816C10.3369 14.7156 10.0127 14.5811 9.72015 14.3993C8.35612 13.5413 7.21349 12.4382 6.20134 11.1968C5.69922 10.58 5.25245 9.91971 4.94011 9.17641C4.87685 9.02617 4.88871 8.92732 5.01127 8.80476C5.48176 8.35008 5.9404 7.88354 6.40298 7.417C7.04744 6.76859 7.04744 6.00948 6.39903 5.35711C6.03133 4.98546 5.66364 4.62172 5.29594 4.25007C4.91638 3.87051 4.54078 3.487 4.15727 3.1114C3.53653 2.50648 2.76161 2.50648 2.14482 3.11535C1.67038 3.58189 1.2157 4.06029 0.733347 4.51892C0.286576 4.94197 0.061214 5.45991 0.0137693 6.06483C-0.0613514 7.04931 0.179826 7.97843 0.519846 8.88383C1.2157 10.7579 2.2753 12.4224 3.56026 13.9485C5.29594 16.0124 7.36769 17.6453 9.79132 18.8235C10.8825 19.3533 12.0133 19.7605 13.2429 19.8277C14.089 19.8752 14.8244 19.6617 15.4135 19.0014C15.8168 18.5507 16.2715 18.1395 16.6985 17.7085C17.3311 17.068 17.335 16.2931 16.7064 15.6605C15.9552 14.9053 15.2 14.1541 14.4448 13.4029Z" fill="white"/>
    <path d="M13.6901 10.2511L15.1491 10.002C14.9197 8.6617 14.2871 7.44791 13.3264 6.4832C12.3103 5.46709 11.0253 4.82659 9.60989 4.62891L9.4043 6.09574C10.4995 6.24993 11.4958 6.74415 12.2826 7.53094C13.0259 8.27424 13.5122 9.21522 13.6901 10.2511Z" fill="white"/>
    <path d="M15.9711 3.90998C14.2868 2.22569 12.1557 1.16214 9.80325 0.833984L9.59766 2.30081C11.6299 2.58548 13.4723 3.5067 14.9273 4.95772C16.3071 6.33756 17.2125 8.08115 17.5407 9.99871L18.9996 9.74962C18.6161 7.52763 17.5684 5.51124 15.9711 3.90998Z" fill="white"/>
  </g>
  <defs>
    <clipPath id="clip0_2179_7559">
      <rect width="19" height="19" fill="white" transform="translate(0 0.833984)"/>
    </clipPath>
  </defs>
</svg>